<svg viewBox="0 0 202 202" class="image" height="202px" version="1.1" width="202px"><path d="m 201.668,19.009 c 0.22206,35.073107 1e-5,86.69308 1e-5,86.69308 L 0.71199131,106.04135 0.26102641,19.009 c 0,0 0.27324997,-18.23083074 19.26684859,-18.385 39.448908,-0.32020309 138.799245,0.10939658 165.827375,0 8.19284,-0.0331606 16.26088,10.192254 16.31275,18.385 z M 39.596914,39.58386 c -22.48393,7.078358 -21.560166,30.712834 -0.02963,36.78228 32.279504,-0.30334 93.637136,-0.95341 122.710816,0 17.98546,-7.095055 18.65729,-28.640904 0.0296,-36.78228 -11.56182,0.037 -35.05981,0.256587 -40.68877,-2.32e-4 -3.21256,-4.589372 -11.08438,-12.141786 -20.94445,-12.105425 -7.416842,-0.01011 -15.875902,6.112169 -20.504468,12.105425 -13.004542,-0.0054 -24.471251,2.32e-4 -40.573132,2.32e-4 z" fill="none" stroke="#979797" /></svg>